<?xml version="1.0" encoding="utf-8"?>
<!-- Generator: Adobe Illustrator 27.5.0, SVG Export Plug-In . SVG Version: 6.00 Build 0)  -->
<svg version="1.1" id="Capa_1" xmlns="http://www.w3.org/2000/svg" xmlns:xlink="http://www.w3.org/1999/xlink" x="0px" y="0px"
	 viewBox="0 0 512 341.3" style="enable-background:new 0 0 512 341.3;" xml:space="preserve">
<style type="text/css">
	.st0{fill:#D80027;}
	.st1{fill:#F0F0F0;}
</style>
<rect class="st0" width="512" height="341.3"/>
<g>
	<polygon class="st1" points="247.2,131.5 264.8,155.7 293.3,146.5 275.7,170.7 293.3,194.9 264.8,185.7 247.2,209.9 247.2,179.9 
		218.7,170.6 247.2,161.4 	"/>
	<path class="st1" d="M199.2,231.3c-33.5,0-60.6-27.1-60.6-60.6s27.1-60.6,60.6-60.6c10.4,0,20.3,2.6,28.8,7.3
		c-13.4-13.2-31.8-21.3-52.1-21.3c-41.2,0-74.6,33.4-74.6,74.6s33.4,74.6,74.6,74.6c20.3,0,38.7-8.1,52.1-21.3
		C219.5,228.6,209.6,231.3,199.2,231.3z"/>
</g>
</svg>
