<?xml version="1.0" encoding="UTF-8" standalone="no"?>
<!DOCTYPE svg PUBLIC "-//W3C//DTD SVG 1.1//EN" "http://www.w3.org/Graphics/SVG/1.1/DTD/svg11.dtd">
<svg xmlns="http://www.w3.org/2000/svg" xmlns:xlink="http://www.w3.org/1999/xlink" version="1.1" width="250pt" height="136.039pt" viewBox="0 0 250 136.039">
<g enable-background="new">
<g id="Layer-1" data-name="Layer 1">
<clipPath id="cp0">
<path transform="matrix(1,0,0,-1,0,136.039)" d="M 0 136.039 L 250 136.039 L 250 0 L 0 0 Z "/>
</clipPath>
<g clip-path="url(#cp0)">
<path transform="matrix(1,0,0,-1,163.875,24.544899)" d="M 0 0 C .138 1.933 -.882 2.989 -3.067 3.15 C -3.087 3.149 -3.096 3.151 -3.119 3.153 C -5.287 3.296 -6.439 2.387 -6.554 .436 C -7.088 -8.354 -7.61 -17.145 -8.142 -25.935 C -8.256 -27.881 -7.29 -28.913 -5.236 -29.048 C -3.16 -29.187 -2.054 -28.295 -1.912 -26.347 C -1.28 -17.565 -.64 -8.781 0 0 M 5.222 -26.916 C 4.703 -32.941 1.068 -35.64 -5.644 -35.203 C -12.341 -34.764 -15.558 -31.611 -15.278 -25.554 C -14.874 -16.756 -14.473 -7.96 -14.066 .838 C -13.784 6.878 -9.992 9.763 -2.684 9.279 C 4.634 8.791 8.029 5.425 7.507 -.597 C 6.741 -9.369 5.988 -18.143 5.222 -26.916 " fill="#b5def6"/>
<path transform="matrix(1,0,0,-1,93.499,37.326105)" d="M 0 0 C 4.4 -8.384 6.519 -12.599 10.599 -21.073 C 7.591 -21.198 6.089 -21.273 3.084 -21.448 C -.347 -13.955 -2.124 -10.222 -5.779 -2.786 C -5.223 -10.449 -4.946 -14.277 -4.386 -21.934 C -7.194 -22.139 -8.596 -22.252 -11.399 -22.498 C -12.647 -8.152 -13.895 6.19 -15.14 20.533 C -12.093 20.797 -10.57 20.921 -7.519 21.142 C -6.962 13.476 -6.682 9.644 -6.126 1.978 C -3.552 9.871 -2.211 13.809 .592 21.672 C 3.861 21.861 5.493 21.943 8.765 22.081 C 5.097 13.279 3.346 8.863 0 0 " fill="#b5def6"/>
<path transform="matrix(1,0,0,-1,106.9863,15.065399)" d="M 0 0 C 3.055 .104 4.58 .145 7.638 .203 C 7.923 -14.191 8.203 -28.586 8.485 -42.979 C 5.675 -43.033 4.269 -43.072 1.457 -43.166 C .975 -28.777 .489 -14.388 0 0 " fill="#b5def6"/>
<path transform="matrix(1,0,0,-1,121.7764,14.768501)" d="M 0 0 C 3.056 .021 4.582 .019 7.637 -.005 C 10.455 -10.049 11.798 -15.078 14.344 -25.154 C 14.556 -15.136 14.664 -10.128 14.876 -.108 C 17.703 -.167 19.115 -.208 21.944 -.303 C 21.453 -14.692 20.964 -29.081 20.473 -43.471 C 17.658 -43.375 16.26 -43.336 13.447 -43.28 C 11.077 -33.528 9.826 -28.655 7.207 -18.933 C 7.138 -28.636 7.104 -33.49 7.034 -43.192 C 4.33 -43.173 2.98 -43.172 .28 -43.192 C .185 -28.795 .097 -14.397 0 0 " fill="#b5def6"/>
<path transform="matrix(1,0,0,-1,163.875,24.544899)" d="M 0 0 C .138 1.933 -.882 2.989 -3.067 3.15 C -3.087 3.149 -3.096 3.151 -3.119 3.153 C -5.287 3.296 -6.439 2.387 -6.554 .436 C -7.088 -8.354 -7.61 -17.145 -8.142 -25.935 C -8.256 -27.881 -7.29 -28.913 -5.236 -29.048 C -3.16 -29.187 -2.054 -28.295 -1.912 -26.347 C -1.28 -17.565 -.64 -8.781 0 0 M 5.222 -26.916 C 4.703 -32.941 1.068 -35.64 -5.644 -35.203 C -12.341 -34.764 -15.558 -31.611 -15.278 -25.554 C -14.874 -16.756 -14.473 -7.96 -14.066 .838 C -13.784 6.878 -9.992 9.763 -2.684 9.279 C 4.634 8.791 8.029 5.425 7.507 -.597 C 6.741 -9.369 5.988 -18.143 5.222 -26.916 " fill="#b5def6"/>
<path transform="matrix(1,0,0,-1,38.9893,106.6494)" d="M 0 0 C .667 10.184 1.443 20.338 2.323 30.504 C 5.043 30.98 6.403 31.205 9.13 31.644 C 11.409 17.43 13.684 3.214 15.967 -11.005 C 13.593 -11.384 12.4 -11.582 10.028 -11.996 C 8.362 -2.446 7.53 2.331 5.866 11.883 C 5.295 1.942 5.069 -3.026 4.731 -12.951 C 3.049 -13.264 2.212 -13.425 .535 -13.757 C -3.513 -4.672 -5.591 -.146 -9.873 8.862 C -7.88 -.626 -6.885 -5.37 -4.896 -14.862 C -7.283 -15.36 -8.479 -15.62 -10.86 -16.155 C -14.011 -2.105 -17.157 11.942 -20.308 25.993 C -17.608 26.598 -16.251 26.891 -13.547 27.458 C -8.931 18.347 -4.42 9.207 0 0 " fill="#b5def6"/>
<path transform="matrix(1,0,0,-1,54.3828,74.0429)" d="M 0 0 C 7.075 1.045 10.629 1.497 17.729 2.275 C 17.996 -.165 18.131 -1.387 18.397 -3.827 C 14.088 -4.303 11.937 -4.562 7.636 -5.133 C 8.287 -10.04 8.608 -12.492 9.263 -17.397 C 12.863 -16.918 14.668 -16.696 18.282 -16.292 C 18.558 -18.744 18.699 -19.965 18.973 -22.417 C 15.411 -22.816 13.625 -23.038 10.068 -23.508 C 10.723 -28.417 11.044 -30.865 11.697 -35.773 C 15.722 -35.239 17.736 -34.996 21.769 -34.553 C 22.036 -36.996 22.17 -38.216 22.436 -40.659 C 15.963 -41.369 12.732 -41.784 6.282 -42.731 C 4.187 -28.487 2.093 -14.246 0 0 " fill="#b5def6"/>
<path transform="matrix(1,0,0,-1,84.5703,76.725009)" d="M 0 0 C .872 -10.265 1.741 -20.531 2.613 -30.794 C 3.723 -30.703 4.282 -30.658 5.393 -30.57 C 7.228 -30.424 8.075 -29.387 7.937 -27.439 C 7.211 -17.456 6.85 -12.462 6.126 -2.478 C 5.985 -.515 4.934 .393 2.968 .242 C 1.781 .15 1.183 .097 0 0 M -7.38 5.492 C -3.153 5.908 -1.04 6.095 3.186 6.42 C 9.283 6.873 12.507 4 12.86 -2.035 C 13.442 -12.03 13.735 -17.03 14.318 -27.025 C 14.668 -33.047 11.932 -36.204 6.115 -36.672 C 2.423 -36.964 .576 -37.127 -3.116 -37.491 C -4.54 -23.165 -5.957 -8.837 -7.38 5.492 " fill="#b5def6"/>
<path transform="matrix(1,0,0,-1,102.8516,69.3749)" d="M 0 0 C 2.748 .126 4.123 .181 6.871 .27 C 7.33 -14.125 7.789 -28.512 8.246 -42.902 C 5.742 -42.979 4.493 -43.033 1.987 -43.144 C 1.324 -28.761 .662 -14.38 0 0 " fill="#b5def6"/>
<path transform="matrix(1,0,0,-1,133.9678,68.936908)" d="M 0 0 C -.041 -2.458 -.063 -3.682 -.107 -6.14 C -2.65 -6.094 -3.924 -6.083 -6.468 -6.071 C -6.525 -18.422 -6.582 -30.768 -6.636 -43.118 C -9.144 -43.107 -10.396 -43.111 -12.9 -43.134 C -13.02 -30.785 -13.14 -18.437 -13.256 -6.089 C -15.794 -6.11 -17.069 -6.131 -19.609 -6.187 C -19.667 -3.734 -19.693 -2.504 -19.751 -.048 C -11.851 .132 -7.898 .143 0 0 " fill="#b5def6"/>
<path transform="matrix(1,0,0,-1,138.3437,69.0317)" d="M 0 0 C 7.127 -.196 10.693 -.356 17.816 -.808 C 17.659 -3.26 17.585 -4.487 17.428 -6.939 C 13.108 -6.666 10.943 -6.548 6.62 -6.371 C 6.421 -11.321 6.313 -13.788 6.109 -18.737 C 9.736 -18.884 11.547 -18.978 15.173 -19.194 C 15.024 -21.656 14.953 -22.885 14.806 -25.35 C 11.229 -25.129 9.439 -25.04 5.86 -24.894 C 5.661 -29.836 5.561 -32.308 5.356 -37.256 C 9.405 -37.418 11.428 -37.527 15.472 -37.784 C 15.315 -40.234 15.237 -41.46 15.078 -43.913 C 8.586 -43.499 5.339 -43.355 -1.159 -43.176 C -.773 -28.787 -.388 -14.396 0 0 " fill="#b5def6"/>
<path transform="matrix(1,0,0,-1,167.5781,76.8657)" d="M 0 0 C -.437 -4.929 -.651 -7.396 -1.088 -12.323 C -.482 -12.378 -.183 -12.404 .425 -12.461 C 1.341 -12.546 1.983 -12.549 2.329 -12.461 C 3.554 -12.15 4.263 -11.271 4.396 -9.896 C 4.654 -7.311 4.781 -6.021 5.04 -3.434 C 5.236 -1.48 4.354 -.399 2.391 -.214 C 1.434 -.129 .958 -.083 0 0 M -6.32 6.677 C -2.325 6.379 -.329 6.212 3.663 5.831 C 9.748 5.239 12.446 1.854 11.76 -4.15 C 11.471 -6.733 11.319 -8.022 11.024 -10.603 C 10.594 -14.38 8.592 -16.661 5.04 -17.51 C 7.151 -25.805 8.144 -29.959 9.998 -38.277 C 7.271 -37.953 5.902 -37.799 3.165 -37.518 C 1.692 -29.729 .91 -25.834 -.759 -18.055 C -1.094 -18.067 -1.262 -18.079 -1.597 -18.088 C -2.262 -25.618 -2.594 -29.376 -3.261 -36.906 C -5.762 -36.685 -7.009 -36.581 -9.511 -36.4 C -8.448 -22.039 -7.383 -7.678 -6.32 6.677 " fill="#b5def6"/>
<path transform="matrix(1,0,0,-1,194.4717,101.9706)" d="M 0 0 C .099 7.253 .128 10.88 .155 18.142 C -1.909 11.178 -2.923 7.696 -4.911 .721 C -2.944 .44 -1.963 .299 0 0 M 6.492 -1.036 C 6.317 -7.22 6.215 -10.312 5.983 -16.488 C 3.475 -16.059 2.222 -15.854 -.29 -15.458 C -.207 -11.765 -.163 -9.913 -.097 -6.219 C -2.688 -5.821 -3.986 -5.631 -6.583 -5.266 C -7.591 -8.827 -8.091 -10.606 -9.08 -14.166 C -11.585 -13.824 -12.841 -13.663 -15.354 -13.355 C -13.803 -7.397 -13.011 -4.423 -11.404 1.524 C -8.717 10.58 -5.933 19.607 -3.062 28.602 C .685 28.088 2.553 27.814 6.292 27.231 C 6.451 17.809 6.516 8.387 6.492 -1.036 " fill="#b5def6"/>
<path transform="matrix(1,0,0,-1,211.8516,76.610309)" d="M 0 0 C 2.718 -.49 4.076 -.745 6.787 -1.275 C 7.438 -11.611 7.697 -16.777 8.078 -27.094 C 10.133 -17.285 11.157 -12.382 13.207 -2.574 C 15.714 -3.098 16.962 -3.369 19.467 -3.926 C 16.334 -17.979 13.204 -32.03 10.067 -46.083 C 7.604 -45.533 6.372 -45.269 3.906 -44.755 C 3.631 -34.789 3.435 -29.796 2.912 -19.81 C 1.057 -29.334 .13 -34.097 -1.727 -43.62 C -4.1 -43.16 -5.291 -42.937 -7.67 -42.508 C -5.112 -28.338 -2.555 -14.171 0 0 " fill="#b5def6"/>
<path transform="matrix(1,0,0,-1,47.2578,34.099504)" d="M 0 0 L 8.819 4.639 L 7.146 -5.177 L 14.27 -12.127 L 4.421 -13.563 L .014 -22.496 L -4.399 -13.569 L -14.254 -12.145 L -7.126 -5.185 L -8.809 4.627 Z " fill="#ffffff"/>
<path transform="matrix(1,0,0,-1,47.2725,57.413499)" d="M 0 0 L 0 0 C -.312 -.001 -.596 .175 -.736 .451 L -4.956 8.997 L -14.384 10.362 C -14.691 10.404 -14.947 10.622 -15.047 10.917 C -15.141 11.212 -15.058 11.539 -14.84 11.757 L -8.019 18.415 L -9.626 27.803 C -9.682 28.113 -9.555 28.422 -9.305 28.606 C -9.052 28.79 -8.717 28.811 -8.443 28.665 L -.015 24.235 L 8.422 28.676 C 8.699 28.821 9.032 28.797 9.287 28.616 C 9.536 28.431 9.667 28.122 9.611 27.813 L 8.01 18.423 L 14.831 11.772 C 15.053 11.555 15.132 11.23 15.034 10.934 C 14.938 10.639 14.682 10.421 14.377 10.379 L 4.948 9.003 L .731 .454 C .593 .176 .311 0 0 0 " fill="#ffffff"/>
<path transform="matrix(1,0,0,-1,202.1025,34.011705)" d="M 0 0 L 8.817 4.639 L 7.145 -5.178 L 14.27 -12.128 L 4.416 -13.563 L .014 -22.497 L -4.401 -13.566 L -14.254 -12.143 L -7.127 -5.185 L -8.813 4.627 Z " fill="#ffffff"/>
<path transform="matrix(1,0,0,-1,202.1162,57.327104)" d="M 0 0 L 0 0 C -.312 0 -.596 .176 -.734 .455 L -4.961 9 L -14.386 10.363 C -14.695 10.407 -14.95 10.623 -15.045 10.917 C -15.143 11.214 -15.063 11.539 -14.837 11.758 L -8.021 18.415 L -9.631 27.807 C -9.683 28.114 -9.555 28.424 -9.306 28.607 C -9.054 28.791 -8.72 28.812 -8.443 28.667 L -.014 24.238 L 8.424 28.677 C 8.697 28.822 9.028 28.801 9.283 28.617 C 9.536 28.433 9.663 28.123 9.608 27.814 L 8.009 18.423 L 14.827 11.773 C 15.048 11.557 15.131 11.231 15.031 10.935 C 14.938 10.64 14.684 10.425 14.374 10.38 L 4.948 9.004 L .731 .453 C .593 .179 .307 .002 0 0 " fill="#ffffff"/>
<path transform="matrix(1,0,0,-1,38.9893,106.6494)" d="M 0 0 C .667 10.184 1.443 20.338 2.323 30.504 C 5.043 30.98 6.403 31.205 9.13 31.644 C 11.409 17.43 13.684 3.214 15.967 -11.005 C 13.593 -11.384 12.4 -11.582 10.028 -11.996 C 8.362 -2.446 7.53 2.331 5.866 11.883 C 5.295 1.942 5.069 -3.026 4.731 -12.951 C 3.049 -13.264 2.212 -13.425 .535 -13.757 C -3.513 -4.672 -5.591 -.146 -9.873 8.862 C -7.88 -.626 -6.885 -5.37 -4.896 -14.862 C -7.283 -15.36 -8.479 -15.62 -10.86 -16.155 C -14.011 -2.105 -17.157 11.942 -20.308 25.993 C -17.608 26.598 -16.251 26.891 -13.547 27.458 C -8.931 18.347 -4.42 9.207 0 0 " fill="#b5def6"/>
<path transform="matrix(1,0,0,-1,54.3828,74.0429)" d="M 0 0 C 7.075 1.045 10.629 1.497 17.729 2.275 C 17.996 -.165 18.131 -1.387 18.397 -3.827 C 14.088 -4.303 11.937 -4.562 7.636 -5.133 C 8.287 -10.04 8.608 -12.492 9.263 -17.397 C 12.863 -16.918 14.668 -16.696 18.282 -16.292 C 18.558 -18.744 18.699 -19.965 18.973 -22.417 C 15.411 -22.816 13.625 -23.038 10.068 -23.508 C 10.723 -28.417 11.044 -30.865 11.697 -35.773 C 15.722 -35.239 17.736 -34.996 21.769 -34.553 C 22.036 -36.996 22.17 -38.216 22.436 -40.659 C 15.963 -41.369 12.732 -41.784 6.282 -42.731 C 4.187 -28.487 2.093 -14.246 0 0 " fill="#b5def6"/>
<path transform="matrix(1,0,0,-1,84.5703,76.725009)" d="M 0 0 C .872 -10.265 1.741 -20.531 2.613 -30.794 C 3.723 -30.703 4.282 -30.658 5.393 -30.57 C 7.228 -30.424 8.075 -29.387 7.937 -27.439 C 7.211 -17.456 6.85 -12.462 6.126 -2.478 C 5.985 -.515 4.934 .393 2.968 .242 C 1.781 .15 1.183 .097 0 0 M -7.38 5.492 C -3.153 5.908 -1.04 6.095 3.186 6.42 C 9.283 6.873 12.507 4 12.86 -2.035 C 13.442 -12.03 13.735 -17.03 14.318 -27.025 C 14.668 -33.047 11.932 -36.204 6.115 -36.672 C 2.423 -36.964 .576 -37.127 -3.116 -37.491 C -4.54 -23.165 -5.957 -8.837 -7.38 5.492 " fill="#b5def6"/>
<path transform="matrix(1,0,0,-1,102.8516,69.3749)" d="M 0 0 C 2.748 .126 4.123 .181 6.871 .27 C 7.33 -14.125 7.789 -28.512 8.246 -42.902 C 5.742 -42.979 4.493 -43.033 1.987 -43.144 C 1.324 -28.761 .662 -14.38 0 0 " fill="#b5def6"/>
<path transform="matrix(1,0,0,-1,133.9678,68.936908)" d="M 0 0 C -.041 -2.458 -.063 -3.682 -.107 -6.14 C -2.65 -6.094 -3.924 -6.083 -6.468 -6.071 C -6.525 -18.422 -6.582 -30.768 -6.636 -43.118 C -9.144 -43.107 -10.396 -43.111 -12.9 -43.134 C -13.02 -30.785 -13.14 -18.437 -13.256 -6.089 C -15.794 -6.11 -17.069 -6.131 -19.609 -6.187 C -19.667 -3.734 -19.693 -2.504 -19.751 -.048 C -11.851 .132 -7.898 .143 0 0 " fill="#b5def6"/>
<path transform="matrix(1,0,0,-1,138.3437,69.0317)" d="M 0 0 C 7.127 -.196 10.693 -.356 17.816 -.808 C 17.659 -3.26 17.585 -4.487 17.428 -6.939 C 13.108 -6.666 10.943 -6.548 6.62 -6.371 C 6.421 -11.321 6.313 -13.788 6.109 -18.737 C 9.736 -18.884 11.547 -18.978 15.173 -19.194 C 15.024 -21.656 14.953 -22.885 14.806 -25.35 C 11.229 -25.129 9.439 -25.04 5.86 -24.894 C 5.661 -29.836 5.561 -32.308 5.356 -37.256 C 9.405 -37.418 11.428 -37.527 15.472 -37.784 C 15.315 -40.234 15.237 -41.46 15.078 -43.913 C 8.586 -43.499 5.339 -43.355 -1.159 -43.176 C -.773 -28.787 -.388 -14.396 0 0 " fill="#b5def6"/>
<path transform="matrix(1,0,0,-1,167.5781,76.8657)" d="M 0 0 C -.437 -4.929 -.651 -7.396 -1.088 -12.323 C -.482 -12.378 -.183 -12.404 .425 -12.461 C 1.341 -12.546 1.983 -12.549 2.329 -12.461 C 3.554 -12.15 4.263 -11.271 4.396 -9.896 C 4.654 -7.311 4.781 -6.021 5.04 -3.434 C 5.236 -1.48 4.354 -.399 2.391 -.214 C 1.434 -.129 .958 -.083 0 0 M -6.32 6.677 C -2.325 6.379 -.329 6.212 3.663 5.831 C 9.748 5.239 12.446 1.854 11.76 -4.15 C 11.471 -6.733 11.319 -8.022 11.024 -10.603 C 10.594 -14.38 8.592 -16.661 5.04 -17.51 C 7.151 -25.805 8.144 -29.959 9.998 -38.277 C 7.271 -37.953 5.902 -37.799 3.165 -37.518 C 1.692 -29.729 .91 -25.834 -.759 -18.055 C -1.094 -18.067 -1.262 -18.079 -1.597 -18.088 C -2.262 -25.618 -2.594 -29.376 -3.261 -36.906 C -5.762 -36.685 -7.009 -36.581 -9.511 -36.4 C -8.448 -22.039 -7.383 -7.678 -6.32 6.677 " fill="#b5def6"/>
<path transform="matrix(1,0,0,-1,194.4717,101.9706)" d="M 0 0 C .099 7.253 .128 10.88 .155 18.142 C -1.909 11.178 -2.923 7.696 -4.911 .721 C -2.944 .44 -1.963 .299 0 0 M 6.492 -1.036 C 6.317 -7.22 6.215 -10.312 5.983 -16.488 C 3.475 -16.059 2.222 -15.854 -.29 -15.458 C -.207 -11.765 -.163 -9.913 -.097 -6.219 C -2.688 -5.821 -3.986 -5.631 -6.583 -5.266 C -7.591 -8.827 -8.091 -10.606 -9.08 -14.166 C -11.585 -13.824 -12.841 -13.663 -15.354 -13.355 C -13.803 -7.397 -13.011 -4.423 -11.404 1.524 C -8.717 10.58 -5.933 19.607 -3.062 28.602 C .685 28.088 2.553 27.814 6.292 27.231 C 6.451 17.809 6.516 8.387 6.492 -1.036 " fill="#b5def6"/>
<path transform="matrix(1,0,0,-1,211.8516,76.610309)" d="M 0 0 C 2.718 -.49 4.076 -.745 6.787 -1.275 C 7.438 -11.611 7.697 -16.777 8.078 -27.094 C 10.133 -17.285 11.157 -12.382 13.207 -2.574 C 15.714 -3.098 16.962 -3.369 19.467 -3.926 C 16.334 -17.979 13.204 -32.03 10.067 -46.083 C 7.604 -45.533 6.372 -45.269 3.906 -44.755 C 3.631 -34.789 3.435 -29.796 2.912 -19.81 C 1.057 -29.334 .13 -34.097 -1.727 -43.62 C -4.1 -43.16 -5.291 -42.937 -7.67 -42.508 C -5.112 -28.338 -2.555 -14.171 0 0 " fill="#b5def6"/>
</g>
</g>
</g>
</svg>

