<svg width="169" height="55" viewBox="0 0 169 55" fill="none" xmlns="http://www.w3.org/2000/svg">
<path d="M1.76392 41.596V25.252C1.76392 19.492 5.65192 15.748 11.2319 15.748C16.8839 15.748 20.8439 19.636 20.8439 25.288C20.8439 31.372 16.3079 34.468 11.9879 34.468C9.43192 34.468 7.30792 33.388 6.04792 31.408V41.596H1.76392ZM11.2679 30.472C14.3999 30.472 16.5239 28.24 16.5239 25.108C16.5239 21.976 14.3999 19.744 11.2679 19.744C8.13592 19.744 6.04792 21.976 6.04792 25.108C6.04792 28.24 8.13592 30.472 11.2679 30.472ZM26.7982 13.912C25.1422 13.912 23.9542 12.724 23.9542 11.068C23.9542 9.41199 25.1422 8.18799 26.7982 8.18799C28.4542 8.18799 29.6422 9.41199 29.6422 11.068C29.6422 12.724 28.4542 13.912 26.7982 13.912ZM24.6382 34V16.216H28.9222V34H24.6382ZM42.2774 34.468C36.6614 34.468 32.7014 30.508 32.7014 25.108C32.7014 19.708 36.6614 15.748 42.2774 15.748C47.1014 15.748 50.6294 18.664 51.4934 22.876H47.1734C46.4174 20.968 44.6174 19.744 42.2774 19.744C39.1454 19.744 37.0214 21.976 37.0214 25.108C37.0214 28.24 39.1454 30.472 42.2774 30.472C44.6174 30.472 46.4174 29.248 47.1734 27.34H51.4934C50.6294 31.552 47.1014 34.468 42.2774 34.468ZM55.2762 34V8.43999H59.5602V23.992L66.6162 16.216H72.0882L63.7362 24.928L72.4122 34H66.8322L59.5602 25.972V34H55.2762ZM103.075 34.468C98.5389 34.468 95.6949 32.056 95.5869 28.744H99.9069C99.9429 29.932 100.987 30.724 103.075 30.724C105.271 30.724 106.207 29.824 106.207 28.744C106.207 27.376 104.623 27.196 102.715 26.944C99.9789 26.584 95.9469 26.116 95.9469 21.76C95.9469 18.124 98.7189 15.748 103.003 15.748C107.359 15.748 110.023 18.196 110.131 21.328H105.883C105.775 20.248 104.767 19.492 103.075 19.492C101.203 19.492 100.267 20.392 100.267 21.436C100.267 22.804 101.887 23.02 103.795 23.272C106.171 23.596 110.527 24.064 110.527 28.492C110.527 32.092 107.611 34.468 103.075 34.468ZM122.573 34.468C116.957 34.468 112.997 30.508 112.997 25.108C112.997 19.708 116.957 15.748 122.573 15.748C128.189 15.748 132.077 19.708 132.077 25.108V26.62H117.497C118.073 29.212 120.053 30.58 122.573 30.58C124.481 30.58 125.885 30.04 126.785 28.888H131.357C130.025 32.272 126.785 34.468 122.573 34.468ZM117.605 23.2H127.541C126.857 20.824 124.913 19.636 122.573 19.636C120.161 19.636 118.289 20.86 117.605 23.2ZM143.377 34.468C139.057 34.468 134.521 31.372 134.521 25.288C134.521 19.636 138.481 15.748 144.133 15.748C149.713 15.748 153.601 19.528 153.601 25.252V34H149.677V30.508C148.597 33.136 146.185 34.468 143.377 34.468ZM144.097 30.472C147.229 30.472 149.317 28.24 149.317 25.108C149.317 21.976 147.229 19.744 144.097 19.744C140.965 19.744 138.841 21.976 138.841 25.108C138.841 28.24 140.965 30.472 144.097 30.472ZM163.821 34.36C162.693 34.36 161.781 34.138 161.085 33.694C160.389 33.25 159.879 32.686 159.555 32.002C159.231 31.306 159.069 30.58 159.069 29.824V19.384H156.333L156.693 16.126H159.069V12.022L163.083 11.608V16.126H167.295V19.384H163.083V27.934C163.083 28.93 163.143 29.65 163.263 30.094C163.383 30.526 163.659 30.802 164.091 30.922C164.523 31.03 165.219 31.084 166.179 31.084H167.259L166.917 34.36H163.821Z" fill="white"/>
<path d="M82.1446 34.468C77.8246 34.468 73.2886 31.372 73.2886 25.288C73.2886 19.636 77.2486 15.748 82.9006 15.748C88.4806 15.748 92.3686 19.528 92.3686 25.252V34H88.4446V30.508C87.3646 33.136 84.9526 34.468 82.1446 34.468ZM82.8646 30.472C85.9966 30.472 88.0846 28.24 88.0846 25.108C88.0846 21.976 85.9966 19.744 82.8646 19.744C79.7326 19.744 77.6086 21.976 77.6086 25.108C77.6086 28.24 79.7326 30.472 82.8646 30.472Z" fill="#ED3200"/>
<path opacity="0.6" d="M98.8608 52V43.2727H102.202C102.832 43.2727 103.357 43.3722 103.774 43.571C104.195 43.767 104.509 44.0355 104.716 44.3764C104.926 44.7173 105.031 45.1037 105.031 45.5355C105.031 45.8906 104.963 46.1946 104.827 46.4474C104.69 46.6974 104.507 46.9006 104.277 47.0568C104.047 47.2131 103.79 47.3253 103.506 47.3935V47.4787C103.815 47.4957 104.112 47.5909 104.396 47.7642C104.683 47.9347 104.918 48.1761 105.099 48.4886C105.281 48.8011 105.372 49.179 105.372 49.6222C105.372 50.0739 105.263 50.4801 105.044 50.8409C104.825 51.1989 104.496 51.4815 104.055 51.6889C103.615 51.8963 103.061 52 102.393 52H98.8608ZM100.442 50.679H102.142C102.716 50.679 103.129 50.5696 103.382 50.3509C103.638 50.1293 103.766 49.8452 103.766 49.4986C103.766 49.2401 103.702 49.0071 103.574 48.7997C103.446 48.5895 103.264 48.4247 103.028 48.3054C102.793 48.1832 102.511 48.1222 102.185 48.1222H100.442V50.679ZM100.442 46.9844H102.006C102.278 46.9844 102.524 46.9347 102.743 46.8352C102.962 46.733 103.134 46.5895 103.259 46.4048C103.386 46.2173 103.45 45.9957 103.45 45.7401C103.45 45.402 103.331 45.1236 103.092 44.9048C102.857 44.6861 102.506 44.5767 102.04 44.5767H100.442V46.9844ZM114.546 47.6364C114.546 48.5767 114.37 49.3821 114.017 50.0526C113.668 50.7202 113.191 51.2315 112.586 51.5866C111.983 51.9418 111.3 52.1193 110.536 52.1193C109.772 52.1193 109.087 51.9418 108.482 51.5866C107.88 51.2287 107.402 50.7159 107.05 50.0483C106.701 49.3778 106.526 48.5739 106.526 47.6364C106.526 46.696 106.701 45.892 107.05 45.2244C107.402 44.554 107.88 44.0412 108.482 43.6861C109.087 43.331 109.772 43.1534 110.536 43.1534C111.3 43.1534 111.983 43.331 112.586 43.6861C113.191 44.0412 113.668 44.554 114.017 45.2244C114.37 45.892 114.546 46.696 114.546 47.6364ZM112.956 47.6364C112.956 46.9744 112.853 46.4162 112.645 45.9616C112.441 45.5043 112.157 45.1591 111.793 44.9261C111.429 44.6903 111.01 44.5724 110.536 44.5724C110.061 44.5724 109.642 44.6903 109.279 44.9261C108.915 45.1591 108.63 45.5043 108.422 45.9616C108.218 46.4162 108.115 46.9744 108.115 47.6364C108.115 48.2983 108.218 48.858 108.422 49.3153C108.63 49.7699 108.915 50.1151 109.279 50.3509C109.642 50.5838 110.061 50.7003 110.536 50.7003C111.01 50.7003 111.429 50.5838 111.793 50.3509C112.157 50.1151 112.441 49.7699 112.645 49.3153C112.853 48.858 112.956 48.2983 112.956 47.6364ZM115.27 44.598V43.2727H122.233V44.598H119.536V52H117.968V44.598H115.27ZM123.192 44.598V43.2727H130.155V44.598H127.458V52H125.89V44.598H123.192ZM133.078 43.2727V52H131.498V43.2727H133.078ZM142.261 46.2173H140.667C140.621 45.956 140.538 45.7244 140.415 45.5227C140.293 45.3182 140.141 45.1449 139.96 45.0028C139.778 44.8608 139.57 44.7543 139.337 44.6832C139.107 44.6094 138.859 44.5724 138.592 44.5724C138.117 44.5724 137.697 44.6918 137.33 44.9304C136.964 45.1662 136.677 45.5128 136.469 45.9702C136.262 46.4247 136.158 46.9801 136.158 47.6364C136.158 48.304 136.262 48.8665 136.469 49.3239C136.68 49.7784 136.967 50.1222 137.33 50.3551C137.697 50.5852 138.116 50.7003 138.587 50.7003C138.849 50.7003 139.093 50.6662 139.32 50.598C139.55 50.527 139.756 50.4233 139.938 50.2869C140.123 50.1506 140.278 49.983 140.403 49.7841C140.531 49.5852 140.619 49.358 140.667 49.1023L142.261 49.1108C142.201 49.5256 142.072 49.9148 141.873 50.2784C141.677 50.642 141.42 50.9631 141.102 51.2415C140.783 51.517 140.411 51.733 139.985 51.8892C139.559 52.0426 139.086 52.1193 138.566 52.1193C137.799 52.1193 137.114 51.9418 136.512 51.5866C135.91 51.2315 135.435 50.7188 135.089 50.0483C134.742 49.3778 134.569 48.5739 134.569 47.6364C134.569 46.696 134.744 45.892 135.093 45.2244C135.442 44.554 135.918 44.0412 136.521 43.6861C137.123 43.331 137.805 43.1534 138.566 43.1534C139.052 43.1534 139.504 43.2216 139.921 43.358C140.339 43.4943 140.711 43.6946 141.038 43.9588C141.364 44.2202 141.633 44.5412 141.843 44.9219C142.056 45.2997 142.195 45.7315 142.261 46.2173ZM143.708 52V43.2727H149.385V44.598H145.289V46.9673H149.091V48.2926H145.289V50.6747H149.419V52H143.708ZM150.998 52V43.2727H152.578V50.6747H156.422V52H150.998ZM157.794 52V43.2727H159.375V50.6747H163.219V52H157.794ZM166.172 43.2727V52H164.591V43.2727H166.172Z" fill="white"/>
</svg>
